HIERARCHY
ROOT Hips
{
  OFFSET 0.000000 95.000000 0.000000
  CHANNELS 6 Xposition Yposition Zposition Zrotation Xrotation Yrotation
  JOINT Spine
  {
    OFFSET 0.000000 10.000000 0.000000
    CHANNELS 3 Zrotation Xrotation Yrotation
    JOINT Spine1
    {
      OFFSET 0.000000 12.000000 0.000000
      CHANNELS 3 Zrotation Xrotation Yrotation
      JOINT Spine2
      {
        OFFSET 0.000000 12.000000 0.000000
        CHANNELS 3 Zrotation Xrotation Yrotation
        JOINT Neck
        {
          OFFSET 0.000000 10.000000 0.000000
          CHANNELS 3 Zrotation Xrotation Yrotation
          JOINT Head
          {
            OFFSET 0.000000 8.000000 0.000000
            CHANNELS 3 Zrotation Xrotation Yrotation
            End Site
            {
              OFFSET 0.000000 10.000000 0.000000
            }
          }
        }
        JOINT LeftShoulder
        {
          OFFSET 6.000000 8.000000 0.000000
          CHANNELS 3 Zrotation Xrotation Yrotation
          JOINT LeftArm
          {
            OFFSET 12.000000 0.000000 0.000000
            CHANNELS 3 Zrotation Xrotation Yrotation
            JOINT LeftForeArm
            {
              OFFSET 24.000000 0.000000 0.000000
              CHANNELS 3 Zrotation Xrotation Yrotation
              JOINT LeftHand
              {
                OFFSET 22.000000 0.000000 0.000000
                CHANNELS 3 Zrotation Xrotation Yrotation
                JOINT LeftHandThumb1
                {
                  OFFSET 1.800000 -1.400000 0.500000
                  CHANNELS 3 Zrotation Xrotation Yrotation
                  JOINT LeftHandThumb2
                  {
                    OFFSET 2.400000 0.000000 0.000000
                    CHANNELS 3 Zrotation Xrotation Yrotation
                    JOINT LeftHandThumb3
                    {
                      OFFSET 1.900000 0.000000 0.000000
                      CHANNELS 3 Zrotation Xrotation Yrotation
                      End Site
                      {
                        OFFSET 1.600000 0.000000 0.000000
                      }
                    }
                  }
                }
                JOINT LeftHandIndex1
                {
                  OFFSET 6.600000 1.200000 0.300000
                  CHANNELS 3 Zrotation Xrotation Yrotation
                  JOINT LeftHandIndex2
                  {
                    OFFSET 2.000000 0.000000 0.000000
                    CHANNELS 3 Zrotation Xrotation Yrotation
                    JOINT LeftHandIndex3
                    {
                      OFFSET 1.200000 0.000000 0.000000
                      CHANNELS 3 Zrotation Xrotation Yrotation
                      End Site
                      {
                        OFFSET 1.000000 0.000000 0.000000
                      }
                    }
                  }
                }
                JOINT LeftHandMiddle1
                {
                  OFFSET 7.200000 0.000000 0.300000
                  CHANNELS 3 Zrotation Xrotation Yrotation
                  JOINT LeftHandMiddle2
                  {
                    OFFSET 3.000000 0.000000 0.000000
                    CHANNELS 3 Zrotation Xrotation Yrotation
                    JOINT LeftHandMiddle3
                    {
                      OFFSET 2.000000 0.000000 0.000000
                      CHANNELS 3 Zrotation Xrotation Yrotation
                      End Site
                      {
                        OFFSET 1.600000 0.000000 0.000000
                      }
                    }
                  }
                }
                JOINT LeftHandRing1
                {
                  OFFSET 7.100000 -1.000000 0.400000
                  CHANNELS 3 Zrotation Xrotation Yrotation
                  JOINT LeftHandRing2
                  {
                    OFFSET 2.600000 0.000000 0.000000
                    CHANNELS 3 Zrotation Xrotation Yrotation
                    JOINT LeftHandRing3
                    {
                      OFFSET 1.600000 0.000000 0.000000
                      CHANNELS 3 Zrotation Xrotation Yrotation
                      End Site
                      {
                        OFFSET 1.300000 0.000000 0.000000
                      }
                    }
                  }
                }
                JOINT LeftHandPinky1
                {
                  OFFSET 6.500000 -2.000000 0.500000
                  CHANNELS 3 Zrotation Xrotation Yrotation
                  JOINT LeftHandPinky2
                  {
                    OFFSET 1.900000 0.000000 0.000000
                    CHANNELS 3 Zrotation Xrotation Yrotation
                    JOINT LeftHandPinky3
                    {
                      OFFSET 1.400000 0.000000 0.000000
                      CHANNELS 3 Zrotation Xrotation Yrotation
                      End Site
                      {
                        OFFSET 1.300000 0.000000 0.000000
                      }
                    }
                  }
                }
              }
            }
          }
        }
        JOINT RightShoulder
        {
          OFFSET -6.000000 8.000000 0.000000
          CHANNELS 3 Zrotation Xrotation Yrotation
          JOINT RightArm
          {
            OFFSET -12.000000 0.000000 0.000000
            CHANNELS 3 Zrotation Xrotation Yrotation
            JOINT RightForeArm
            {
              OFFSET -24.000000 0.000000 0.000000
              CHANNELS 3 Zrotation Xrotation Yrotation
              JOINT RightHand
              {
                OFFSET -22.000000 0.000000 0.000000
                CHANNELS 3 Zrotation Xrotation Yrotation
                JOINT RightHandThumb1
                {
                  OFFSET -1.800000 -1.400000 0.500000
                  CHANNELS 3 Zrotation Xrotation Yrotation
                  JOINT RightHandThumb2
                  {
                    OFFSET -2.400000 0.000000 0.000000
                    CHANNELS 3 Zrotation Xrotation Yrotation
                    JOINT RightHandThumb3
                    {
                      OFFSET -1.900000 0.000000 0.000000
                      CHANNELS 3 Zrotation Xrotation Yrotation
                      End Site
                      {
                        OFFSET -1.600000 0.000000 0.000000
                      }
                    }
                  }
                }
                JOINT RightHandIndex1
                {
                  OFFSET -6.600000 1.200000 0.300000
                  CHANNELS 3 Zrotation Xrotation Yrotation
                  JOINT RightHandIndex2
                  {
                    OFFSET -2.000000 0.000000 0.000000
                    CHANNELS 3 Zrotation Xrotation Yrotation
                    JOINT RightHandIndex3
                    {
                      OFFSET -1.200000 0.000000 0.000000
                      CHANNELS 3 Zrotation Xrotation Yrotation
                      End Site
                      {
                        OFFSET -1.000000 0.000000 0.000000
                      }
                    }
                  }
                }
                JOINT RightHandMiddle1
                {
                  OFFSET -7.200000 0.000000 0.300000
                  CHANNELS 3 Zrotation Xrotation Yrotation
                  JOINT RightHandMiddle2
                  {
                    OFFSET -3.000000 0.000000 0.000000
                    CHANNELS 3 Zrotation Xrotation Yrotation
                    JOINT RightHandMiddle3
                    {
                      OFFSET -2.000000 0.000000 0.000000
                      CHANNELS 3 Zrotation Xrotation Yrotation
                      End Site
                      {
                        OFFSET -1.600000 0.000000 0.000000
                      }
                    }
                  }
                }
                JOINT RightHandRing1
                {
                  OFFSET -7.100000 -1.000000 0.400000
                  CHANNELS 3 Zrotation Xrotation Yrotation
                  JOINT RightHandRing2
                  {
                    OFFSET -2.600000 0.000000 0.000000
                    CHANNELS 3 Zrotation Xrotation Yrotation
                    JOINT RightHandRing3
                    {
                      OFFSET -1.600000 0.000000 0.000000
                      CHANNELS 3 Zrotation Xrotation Yrotation
                      End Site
                      {
                        OFFSET -1.300000 0.000000 0.000000
                      }
                    }
                  }
                }
                JOINT RightHandPinky1
                {
                  OFFSET -6.500000 -2.000000 0.500000
                  CHANNELS 3 Zrotation Xrotation Yrotation
                  JOINT RightHandPinky2
                  {
                    OFFSET -1.900000 0.000000 0.000000
                    CHANNELS 3 Zrotation Xrotation Yrotation
                    JOINT RightHandPinky3
                    {
                      OFFSET -1.400000 0.000000 0.000000
                      CHANNELS 3 Zrotation Xrotation Yrotation
                      End Site
                      {
                        OFFSET -1.300000 0.000000 0.000000
                      }
                    }
                  }
                }
              }
            }
          }
        }
      }
    }
  }
  JOINT LeftUpLeg
  {
    OFFSET 10.000000 -5.000000 0.000000
    CHANNELS 3 Zrotation Xrotation Yrotation
    JOINT LeftLeg
    {
      OFFSET 0.000000 -42.000000 0.000000
      CHANNELS 3 Zrotation Xrotation Yrotation
      JOINT LeftFoot
      {
        OFFSET 0.000000 -42.000000 4.000000
        CHANNELS 3 Zrotation Xrotation Yrotation
        End Site
        {
          OFFSET 0.000000 0.000000 12.000000
        }
      }
    }
  }
  JOINT RightUpLeg
  {
    OFFSET -10.000000 -5.000000 0.000000
    CHANNELS 3 Zrotation Xrotation Yrotation
    JOINT RightLeg
    {
      OFFSET 0.000000 -42.000000 0.000000
      CHANNELS 3 Zrotation Xrotation Yrotation
      JOINT RightFoot
      {
        OFFSET 0.000000 -42.000000 4.000000
        CHANNELS 3 Zrotation Xrotation Yrotation
        End Site
        {
          OFFSET 0.000000 0.000000 12.000000
        }
      }
    }
  }
}
MOTION
Frames: 4
Frame Time: 0.033333
0.0000 95.0000 0.0000 0.0000 0.0000 0.0000 0.0000 0.0000 0.0000 0.0000 0.0000 0.0000 0.0000 0.0000 0.0000 0.0000 0.0000 0.0000 0.0000 0.0000 0.0000 0.0000 0.0000 0.0000 -62.6725 -12.2106 -19.9272 49.5710 67.9823 -32.2139 -297.1247 18.9248 80.2259 61.7618 -12.8167 1.2061 12.1873 0.0000 0.0000 11.1717 0.0000 0.0000 -1.1080 0.1262 -0.4419 4.5588 0.0000 0.0000 3.6231 0.0000 0.0000 -0.3089 0.0196 2.4816 1.9683 0.0000 0.0000 2.4435 0.0000 0.0000 8.1377 -0.2032 3.6482 1.7560 0.0000 0.0000 3.4941 0.0000 0.0000 12.6461 0.0904 5.4302 1.3512 0.0000 0.0000 3.7940 0.0000 0.0000 0.0000 0.0000 0.0000 78.2506 -13.8165 16.9441 268.7568 65.6659 350.5347 -116.6548 -22.9354 99.8851 -9.4564 3.5121 -9.0377 7.4006 0.0000 0.0000 15.9469 0.0000 0.0000 14.6602 0.6125 -0.8162 3.6887 0.0000 0.0000 2.6361 0.0000 0.0000 -7.7028 -0.4225 -1.4976 4.9531 0.0000 0.0000 0.8456 0.0000 0.0000 -13.8245 -0.7068 -3.3093 3.5568 0.0000 0.0000 1.6867 0.0000 0.0000 -23.4642 -1.0978 -6.6669 2.0176 0.0000 0.0000 2.0909 0.0000 0.0000 0.0000 0.0000 0.0000 0.0000 0.0000 0.0000 0.0000 0.0000 0.0000 0.0000 0.0000 0.0000 0.0000 0.0000 0.0000 0.0000 0.0000 0.0000
0.0000 95.0000 0.0000 0.0000 0.0000 0.0000 0.0000 0.0000 0.0000 0.0000 0.0000 0.0000 0.0000 0.0000 0.0000 0.0000 0.0000 0.0000 0.0000 0.0000 0.0000 0.0000 0.0000 0.0000 -62.9570 -12.4042 -20.1287 55.7188 65.1847 -24.9147 -295.7129 19.6331 76.5459 61.6518 -12.9030 0.1517 11.8628 0.0000 0.0000 7.9829 0.0000 0.0000 -2.1078 0.0896 0.0363 3.8423 0.0000 0.0000 3.4706 0.0000 0.0000 -0.0987 0.0066 2.9094 1.5640 0.0000 0.0000 2.3075 0.0000 0.0000 8.3416 -0.1758 4.3197 1.4484 0.0000 0.0000 2.9324 0.0000 0.0000 13.5454 0.0345 5.7245 0.8649 0.0000 0.0000 2.7437 0.0000 0.0000 0.0000 0.0000 0.0000 78.7976 -13.5629 16.4755 268.4509 65.3451 350.3513 -115.4424 -19.1033 101.7293 -10.4718 4.7723 -11.4740 6.3218 0.0000 0.0000 12.0545 0.0000 0.0000 16.5942 0.6599 -2.3015 2.8359 0.0000 0.0000 4.1773 0.0000 0.0000 -4.2420 -0.2157 -1.0483 5.4680 0.0000 0.0000 1.5578 0.0000 0.0000 -11.5062 -0.4793 -4.1199 4.3070 0.0000 0.0000 2.8080 0.0000 0.0000 -28.5815 -1.5009 -12.0168 10.9327 0.0000 0.0000 5.0815 0.0000 0.0000 0.0000 0.0000 0.0000 0.0000 0.0000 0.0000 0.0000 0.0000 0.0000 0.0000 0.0000 0.0000 0.0000 0.0000 0.0000 0.0000 0.0000 0.0000
0.0000 95.0000 0.0000 0.0000 0.0000 0.0000 0.0000 0.0000 0.0000 0.0000 0.0000 0.0000 0.0000 0.0000 0.0000 0.0000 0.0000 0.0000 0.0000 0.0000 0.0000 0.0000 0.0000 0.0000 -63.0115 -12.4275 -20.1451 57.7155 63.7817 -22.4217 -295.8844 17.8309 72.9618 61.9658 -12.9424 0.3096 13.5246 0.0000 0.0000 10.2504 0.0000 0.0000 -1.1871 0.1371 -0.4867 4.2738 0.0000 0.0000 3.5046 0.0000 0.0000 -0.4192 0.0280 2.8745 1.8956 0.0000 0.0000 2.0238 0.0000 0.0000 7.4956 -0.1150 4.0737 1.1923 0.0000 0.0000 2.6399 0.0000 0.0000 11.8473 0.2013 5.4956 1.3079 0.0000 0.0000 3.2660 0.0000 0.0000 0.0000 0.0000 0.0000 79.3507 -13.5425 16.2921 266.0915 64.8802 348.4387 -113.9404 -19.0920 101.5670 -11.1246 4.4436 -11.3671 7.0292 0.0000 0.0000 11.5934 0.0000 0.0000 14.4853 0.4503 -3.6882 3.9440 0.0000 0.0000 3.0751 0.0000 0.0000 -6.1425 -0.3822 -2.3429 5.0228 0.0000 0.0000 1.2715 0.0000 0.0000 -13.8833 -0.6757 -5.2564 3.8605 0.0000 0.0000 3.0471 0.0000 0.0000 -30.7588 -1.8631 -12.8079 7.9388 0.0000 0.0000 5.9759 0.0000 0.0000 0.0000 0.0000 0.0000 0.0000 0.0000 0.0000 0.0000 0.0000 0.0000 0.0000 0.0000 0.0000 0.0000 0.0000 0.0000 0.0000 0.0000 0.0000
0.0000 95.0000 0.0000 0.0000 0.0000 0.0000 0.0000 0.0000 0.0000 0.0000 0.0000 0.0000 0.0000 0.0000 0.0000 0.0000 0.0000 0.0000 0.0000 0.0000 0.0000 0.0000 0.0000 0.0000 -63.3553 -12.1753 -19.6115 58.6150 63.8889 -21.9756 -296.0069 18.0458 72.2587 61.2952 -12.7983 0.5583 12.7929 0.0000 0.0000 9.5628 0.0000 0.0000 -1.7717 0.1748 -0.5701 3.5654 0.0000 0.0000 3.4854 0.0000 0.0000 0.0425 -0.0029 2.9722 1.7376 0.0000 0.0000 2.4375 0.0000 0.0000 7.7869 -0.1390 4.1107 1.3123 0.0000 0.0000 2.9950 0.0000 0.0000 12.8303 -0.0058 5.0422 1.1281 0.0000 0.0000 2.9931 0.0000 0.0000 0.0000 0.0000 0.0000 79.6570 -13.5021 16.1568 265.3964 65.1686 347.8868 -114.5291 -18.2918 102.1482 -11.6694 4.8124 -12.2493 6.2831 0.0000 0.0000 12.7545 0.0000 0.0000 14.1770 0.3831 -4.4641 4.8646 0.0000 0.0000 4.9092 0.0000 0.0000 -6.6262 -0.4211 -2.4923 6.6337 0.0000 0.0000 1.3141 0.0000 0.0000 -12.7699 -0.5760 -4.7901 4.2931 0.0000 0.0000 2.2912 0.0000 0.0000 -28.1396 -1.5119 -10.3288 7.2927 0.0000 0.0000 4.4884 0.0000 0.0000 0.0000 0.0000 0.0000 0.0000 0.0000 0.0000 0.0000 0.0000 0.0000 0.0000 0.0000 0.0000 0.0000 0.0000 0.0000 0.0000 0.0000 0.0000
